# xmcd CD database file
# Copyright (C) 1993-2000  Ti Kan
#
# Track frame offsets:
#	150
#	16013
#	36132
#	54751
#	74618
#	96277
#	116856
#	131387
#	149930
#	166343
#	188022
#
# Disc length: 2762 seconds
#
# Revision: 1
# Processed by: cddbd v1.5PL3 Copyright (c) Steve Scherf et al.
# Submitted via: xmcd 2.6 PL0
#
DISCID=990ac80b
DTITLE=J.J. Caillier and zydeco knockouts - The Good Bad and Ugly
DYEAR=1900
DGENRE=
TTITLE0=The Good Bad and Ugly
TTITLE1=Good To You
TTITLE2=Tell Me Why
TTITLE3=Get On Up (Bikes Shuffle)
TTITLE4=I Just Don't Know
TTITLE5=Cush Cush Caillier
TTITLE6=Stick With Me
TTITLE7=Kings Of Zydeco
TTITLE8=Joann
TTITLE9=Every Where I Go
TTITLE10=The Key To The Highway
EXTD=
EXTT0=
EXTT1=
EXTT2=
EXTT3=
EXTT4=
EXTT5=
EXTT6=
EXTT7=
EXTT8=
EXTT9=
EXTT10=
PLAYORDER=
